<?xml version="1.0" encoding="UTF-8"?>
<svg id="Layer_1" data-name="Layer 1" xmlns="http://www.w3.org/2000/svg" viewBox="0 0 1024 1024">
  <defs>
    <style>
      .cls-1 {
        fill: #b5b3b4;
        stroke-width: 0px;
      }
    </style>
  </defs>
  <path class="cls-1" d="M827.76,622.58l-421.15,112.85c-12.81,3.43-23.73,11.81-30.36,23.3l-69.03,119.57c-6.68,11.57,3.96,25.45,16.87,21.99l421.15-112.85c12.81-3.43,23.73-11.81,30.36-23.3l69.03-119.57c6.68-11.57-3.96-25.45-16.87-21.99Z"/>
  <path class="cls-1" d="M372.59,715.78l-112.85-421.15c-3.46-12.91-20.8-15.19-27.48-3.62l-69.03,119.57c-6.63,11.48-8.43,25.13-5,37.94l112.85,421.15c3.46,12.91,20.8,15.19,27.48,3.62l69.03-119.57c6.63-11.48,8.43-25.13,5-37.94Z"/>
  <polygon class="cls-1" points="654.95 534.41 708.56 520.04 664.41 462.51 654.95 534.41"/>
  <path class="cls-1" d="M633.93,276.61c-17.15,4.59-26.68,18.28-24.87,35.65l63.99-17.15c-7.06-15.71-22.22-23.03-39.12-18.5Z"/>
  <path class="cls-1" d="M716.25,124.47l-434.67,116.47c-13.34,3.57-21.25,17.28-17.68,30.62l116.47,434.67c3.57,13.34,17.28,21.25,30.62,17.68l434.67-116.47c13.34-3.57,21.25-17.28,17.68-30.62l-116.47-434.67c-3.57-13.34-17.28-21.25-30.62-17.68ZM626.06,248.18c38.15-10.22,74.47,7.48,85.67,49.26.78,2.9,1.39,7.13,1.99,10.34l-98.28,26.33c7.96,15.21,24.37,21.42,44.18,16.12,13.76-3.69,22.57-10.45,29.24-21.29l25.87,16.36c-8.39,17-24.56,29.1-47.98,35.37-44.92,12.04-81.71-8.39-92.06-47.03-10.42-38.88,11.78-74.85,51.38-85.46ZM551.93,485.66l-54.09,14.49,36.75,137.16-39.12,10.48-36.75-137.16-54.09,14.49-8.54-31.88,147.3-39.47,8.54,31.88ZM465.07,432.63l-76.79,20.58-45.29-169.04,76.79-20.58c55.3-14.82,102.14,8.35,115.86,59.54s-15.27,94.68-70.57,109.49ZM753.51,578.66l-24.68-32.21-78.48,21.03-5.27,40.23-40.09,10.74,30.05-189.22,38.64-10.35,120.88,148.78-41.05,11Z"/>
  <path class="cls-1" d="M426.45,296.23l-35.74,9.58,28.08,104.8,35.74-9.58c33.57-8.99,50.17-34.93,41.5-67.28-8.67-32.36-36.02-46.51-69.58-37.52Z"/>
</svg>
